<?xml version="1.0" encoding="UTF-8"?>
<svg xmlns="http://www.w3.org/2000/svg" xmlns:xlink="http://www.w3.org/1999/xlink" width="196pt" height="71pt" viewBox="0 0 196 71">
<path fill-rule="nonzero" fill="rgb(0%, 0%, 0%)" fill-opacity="1" d="M 122.480469 70.945312 L 101.074219 70.945312 L 75.628906 43.320312 L 75.628906 27.542969 L 100.296875 0 L 122.324219 0 L 93.9375 35.707031 L 122.480469 70.945312 "/>
<path fill-rule="nonzero" fill="rgb(0%, 0%, 0%)" fill-opacity="1" d="M 125.730469 0.152344 L 144.96875 0.152344 L 144.96875 70.933594 L 125.730469 70.933594 Z M 125.730469 0.152344 "/>
<path fill-rule="nonzero" fill="rgb(0%, 0%, 0%)" fill-opacity="1" d="M 196 0.0507812 L 149.617188 0.0507812 L 149.617188 16.050781 L 163.191406 16.050781 L 163.191406 71 L 182.425781 71 L 182.425781 16.050781 L 196 16.050781 L 196 0.0507812 "/>
<path fill-rule="nonzero" fill="rgb(0%, 0%, 0%)" fill-opacity="1" d="M 71.035156 70.9375 L 71.023438 70.914062 L 71.023438 70.925781 L 71.035156 70.9375 "/>
<path fill-rule="nonzero" fill="rgb(0%, 58.822632%, 50.979614%)" fill-opacity="1" d="M 16.121094 25.992188 C 12.441406 30.488281 9.304688 35.453125 6.792969 40.78125 L 71.023438 70.945312 L 16.121094 25.992188 "/>
<path fill-rule="nonzero" fill="rgb(0%, 58.822632%, 50.979614%)" fill-opacity="1" d="M 71.015625 70.914062 L 41.046875 6.625 C 35.757812 9.085938 30.824219 12.183594 26.339844 15.824219 L 71.023438 70.9375 L 71.015625 70.914062 "/>
<path fill-rule="nonzero" fill="rgb(0%, 0%, 0%)" fill-opacity="1" d="M 71.023438 70.921875 L 71.023438 70.925781 L 71.023438 70.914062 L 71.015625 70.898438 L 71.023438 70.921875 "/>
<path fill-rule="nonzero" fill="rgb(0%, 0%, 0%)" fill-opacity="1" d="M 71.023438 70.921875 L 71.023438 70.925781 L 71.023438 70.914062 L 71.015625 70.898438 L 71.023438 70.921875 "/>
<path fill-rule="nonzero" fill="rgb(0%, 58.822632%, 50.979614%)" fill-opacity="1" d="M 2.195312 53.578125 C 0.785156 59.132812 0.03125 64.953125 0 70.945312 L 71 70.945312 L 2.195312 53.578125 "/>
<path fill-rule="nonzero" fill="rgb(0%, 0%, 0%)" fill-opacity="1" d="M 71.023438 70.929688 L 71.058594 0.121094 C 70.878906 0.117188 70.703125 0.105469 70.527344 0.105469 C 64.808594 0.105469 59.257812 0.808594 53.933594 2.105469 L 71.015625 70.914062 L 71.023438 70.929688 "/>
</svg>
